<svg width="16" height="16" viewBox="0 0 16 16" fill="none" xmlns="http://www.w3.org/2000/svg">
<g clip-path="url(#clip0)">
<path d="M7.37568 3.55528L0.255608 10.6755C0.0907959 10.8402 -7.16833e-08 11.06 -6.14371e-08 11.2944C-5.1191e-08 11.5288 0.090796 11.7486 0.255608 11.9133L0.779831 12.4377C1.12142 12.7789 1.6766 12.7789 2.01767 12.4377L7.99668 6.45867L13.9823 12.4443C14.1471 12.609 14.3668 12.6999 14.6011 12.6999C14.8357 12.6999 15.0554 12.609 15.2203 12.4443L15.7444 11.92C15.9092 11.7551 16 11.5354 16 11.301C16 11.0666 15.9092 10.8468 15.7444 10.6821L8.61782 3.55528C8.45248 3.39021 8.23174 3.29954 7.99707 3.30006C7.7615 3.29954 7.54088 3.39021 7.37568 3.55528Z" fill="#333333"/>
</g>
<defs>
<clipPath id="clip0">
<rect width="16" height="16" fill="white" transform="translate(0 16) rotate(-90)"/>
</clipPath>
</defs>
</svg>
