<svg width="111" height="111" viewBox="0 0 111 111" fill="none" xmlns="http://www.w3.org/2000/svg">
<rect width="111" height="111" rx="10" fill="#2F80ED"/>
<path d="M64.0363 57.2015H60.8736L60.1137 59.4888H58.4249L61.5994 50.5665H63.3114L66.4871 59.4888H64.7964L64.0363 57.2015ZM62.4485 52.1129C62.4485 52.1129 62.2448 52.9931 62.0682 53.4946L61.2689 55.8811H63.629L62.8286 53.4946C62.6631 52.9908 62.474 52.1129 62.474 52.1129H62.4485Z" fill="white"/>
<path d="M68.9115 50.5684H71.8183C72.7955 50.5684 73.24 50.6429 73.6321 50.821C74.5346 51.2209 75.1053 52.0775 75.1053 53.2582C75.1053 54.3264 74.5342 55.3174 73.5819 55.6979V55.7232C73.5819 55.7232 73.7084 55.8478 73.8873 56.1633L75.741 59.4924H73.9136L72.1232 56.1628H70.5476V59.4914H68.9108V50.5674H68.9117V50.5684H68.9115ZM72.0207 54.7525C72.8963 54.7525 73.4417 54.2375 73.4417 53.3453C73.4417 52.4913 73.0745 51.9636 71.7921 51.9636H70.5473V54.7538L72.0207 54.7525Z" fill="white"/>
<path d="M78.535 50.5683H81.608C84.388 50.5683 86.2022 52.2017 86.2022 55.0153C86.2022 57.8326 84.3885 59.4883 81.608 59.4883H78.535V50.5683ZM81.5191 58.0944C83.3474 58.0944 84.5135 57.0269 84.5135 55.0154C84.5135 53.0319 83.3189 51.9628 81.5191 51.9628H80.1724V58.0944H81.5191Z" fill="white"/>
<path d="M89.1375 57.2015C89.1375 57.2015 90.115 58.1442 91.3842 58.1442C92.0695 58.1442 92.6925 57.7936 92.6925 57.0649C92.6925 55.4667 88.4389 55.7429 88.4389 53.0051C88.4389 51.5211 89.7333 50.4167 91.4598 50.4167C93.2379 50.4167 94.1513 51.3717 94.1513 51.3717L93.4397 52.692C93.4397 52.692 92.5742 51.9133 91.4447 51.9133C90.6854 51.9133 90.0865 52.3533 90.0865 52.9815C90.0865 54.5658 94.3257 54.1753 94.3257 57.0292C94.3257 58.4488 93.2349 59.6421 91.3554 59.6421C89.3501 59.6421 88.2461 58.4247 88.2461 58.4247L89.1375 57.2015Z" fill="white"/>
<path d="M45.5603 50.5683L44.0744 56.7403C43.9607 57.2424 43.9229 57.6814 43.9229 57.6814H43.8968C43.8834 57.6814 43.8707 57.2543 43.7316 56.7403L42.1322 50.5683H40.7107L39.0862 56.7403C38.9459 57.2531 38.9341 57.6814 38.921 57.6814H38.8958C38.8958 57.6814 38.8559 57.2417 38.7439 56.7403L37.68 52.1188L36.8805 55.4876L37.8922 59.4888H39.7838L41.1678 54.2122C41.3201 53.6339 41.397 53.0438 41.397 53.0438H41.421C41.421 53.0438 41.497 53.634 41.6504 54.2122L43.0359 59.4888H44.9261L47.2512 50.5665L45.5603 50.5683Z" fill="white"/>
<path d="M55.7304 50.5683L54.244 56.7403C54.1306 57.2424 54.0924 57.6814 54.0924 57.6814H54.0658C54.0543 57.6814 54.042 57.2543 53.9024 56.7403L52.3015 50.5683H50.8812L49.2563 56.7403C49.1156 57.2531 49.1043 57.6814 49.0913 57.6814H49.0652C49.0652 57.6814 49.0272 57.2417 48.9134 56.7403L47.843 52.0974L47.0435 55.4665L48.063 59.4896H49.9538L51.3371 54.2128C51.4892 53.6344 51.5668 53.0444 51.5668 53.0444H51.5921C51.5921 53.0444 51.6683 53.6344 51.8206 54.2128L53.2055 59.4896H55.0964L57.4212 50.5683H55.7304Z" fill="white"/>
<path d="M22.1736 57.2015H19.012L18.2504 59.4888H16.5613L19.7355 50.5683H21.45L24.6238 59.4888H22.9347L22.1736 57.2015ZM20.5865 52.1129C20.5865 52.1129 20.3825 52.9931 20.2057 53.4946L19.4057 55.8811H21.7671L20.9659 53.4956C20.8017 52.9924 20.6105 52.1129 20.6105 52.1129H20.5865Z" fill="white"/>
<path d="M33.5623 56.739C33.7016 57.2532 33.7137 57.6807 33.7262 57.6807H33.7518C33.7518 57.6807 33.7909 57.2399 33.904 56.739L35.3894 50.5665H37.0783L34.754 59.4888H32.8632L31.4799 54.2115C31.3281 53.6336 31.2502 53.0433 31.2502 53.0433H31.225C31.225 53.0433 31.1498 53.6336 30.9964 54.2115L29.6121 59.4883H27.7205L25.4611 50.5683H27.1498L28.5722 56.7403C28.6867 57.2424 28.7246 57.6814 28.7246 57.6814H28.7502C28.7638 57.6814 28.7741 57.2543 28.9153 56.7403L30.5404 50.5683H31.96L33.5623 56.739Z" fill="white"/>
</svg>
