<svg width="16" height="16" viewBox="0 0 16 16" fill="none" xmlns="http://www.w3.org/2000/svg">
<path d="M3.55507 7.37568L10.6753 0.255608C10.8399 0.090796 11.0598 0 11.2942 0C11.5286 0 11.7484 0.090796 11.9131 0.255608L12.4375 0.779831C12.7787 1.12142 12.7787 1.6766 12.4375 2.01767L6.45846 7.99668L12.4441 13.9823C12.6088 14.1471 12.6997 14.3668 12.6997 14.6011C12.6997 14.8357 12.6088 15.0554 12.4441 15.2203L11.9197 15.7444C11.7549 15.9092 11.5352 16 11.3008 16C11.0664 16 10.8466 15.9092 10.6819 15.7444L3.55507 8.61782C3.38999 8.45248 3.29933 8.23174 3.29985 7.99707C3.29933 7.7615 3.38999 7.54088 3.55507 7.37568Z" fill="#4F4F4F"/>
</svg>
