<svg width="10" height="16" viewBox="0 0 10 16" fill="none" xmlns="http://www.w3.org/2000/svg">
<path d="M0.55528 7.37568L7.67548 0.255608C7.84016 0.090796 8.06 0 8.2944 0C8.52881 0 8.74864 0.090796 8.91333 0.255608L9.43768 0.779831C9.77888 1.12142 9.77888 1.6766 9.43768 2.01767L3.45867 7.99668L9.44431 13.9823C9.60899 14.1471 9.69992 14.3668 9.69992 14.6011C9.69992 14.8357 9.60899 15.0554 9.44431 15.2203L8.91996 15.7444C8.75515 15.9092 8.53544 16 8.30104 16C8.06663 16 7.8468 15.9092 7.68212 15.7444L0.55528 8.61782C0.390207 8.45248 0.299542 8.23174 0.300062 7.99707C0.299542 7.7615 0.390207 7.54088 0.55528 7.37568Z" fill="#4F4F4F"/>
</svg>
