<svg width="12" height="12" viewBox="0 0 12 12" fill="none" xmlns="http://www.w3.org/2000/svg">
<rect width="12" height="12" rx="2" fill="#2F80ED"/>
<path d="M2.09231 6.3077C2.03077 6.24616 2 6.15385 2 6.09231C2 6.03077 2.03077 5.93846 2.09231 5.87693L2.52308 5.44616C2.64615 5.32308 2.83077 5.32308 2.95385 5.44616L2.98462 5.47693L4.67692 7.29231C4.73846 7.35385 4.83077 7.35385 4.89231 7.29231L9.01538 3.01539H9.04615C9.16923 2.89231 9.35385 2.89231 9.47692 3.01539L9.90769 3.44616C10.0308 3.56923 10.0308 3.75385 9.90769 3.87693L4.98462 8.98462C4.92308 9.04616 4.86154 9.07693 4.76923 9.07693C4.67692 9.07693 4.61538 9.04616 4.55385 8.98462L2.15385 6.4L2.09231 6.3077Z" fill="white"/>
</svg>
