<svg width="8" height="8" viewBox="0 0 8 8" fill="none" xmlns="http://www.w3.org/2000/svg">
<path d="M0.0923077 4.3077C0.0307692 4.24616 0 4.15385 0 4.09231C0 4.03077 0.0307692 3.93846 0.0923077 3.87693L0.523077 3.44616C0.646154 3.32308 0.830769 3.32308 0.953846 3.44616L0.984615 3.47693L2.67692 5.29231C2.73846 5.35385 2.83077 5.35385 2.89231 5.29231L7.01538 1.01539H7.04615C7.16923 0.892311 7.35385 0.892311 7.47692 1.01539L7.90769 1.44616C8.03077 1.56923 8.03077 1.75385 7.90769 1.87693L2.98462 6.98462C2.92308 7.04616 2.86154 7.07693 2.76923 7.07693C2.67692 7.07693 2.61538 7.04616 2.55385 6.98462L0.153846 4.4L0.0923077 4.3077Z" fill="white"/>
</svg>
