<svg width="18" height="18" viewBox="0 0 18 18" fill="none" xmlns="http://www.w3.org/2000/svg">
<path d="M0.207692 9.69229C0.0692308 9.55383 0 9.34613 0 9.20767C0 9.06921 0.0692308 8.86152 0.207692 8.72306L1.17692 7.75383C1.45385 7.4769 1.86923 7.4769 2.14615 7.75383L2.21538 7.82306L6.02308 11.9077C6.16154 12.0461 6.36923 12.0461 6.50769 11.9077L15.7846 2.2846H15.8538C16.1308 2.00767 16.5462 2.00767 16.8231 2.2846L17.7923 3.25383C18.0692 3.53075 18.0692 3.94613 17.7923 4.22306L6.71538 15.7154C6.57692 15.8538 6.43846 15.9231 6.23077 15.9231C6.02308 15.9231 5.88462 15.8538 5.74615 15.7154L0.346154 9.89998L0.207692 9.69229Z" fill="#27AE60"/>
</svg>
