<svg width="18" height="18" viewBox="0 0 18 18" fill="none" xmlns="http://www.w3.org/2000/svg">
<path d="M10.4325 6.3075L9.375 5.25L5.625 9L9.375 12.75L10.4325 11.6925L8.4975 9.75L15.75 9.75L15.75 8.25L8.4975 8.25L10.4325 6.3075ZM3.75 15.75L14.25 15.75C15.0825 15.75 15.75 15.075 15.75 14.25L15.75 11.25L14.25 11.25L14.25 14.25L3.75 14.25L3.75 3.75L14.25 3.75L14.25 6.75L15.75 6.75L15.75 3.75C15.75 2.925 15.0825 2.25 14.25 2.25L3.75 2.25C2.925 2.25 2.25 2.925 2.25 3.75L2.25 14.25C2.25 15.075 2.925 15.75 3.75 15.75Z" fill="white"/>
</svg>
