<svg width="18" height="18" viewBox="0 0 18 18" fill="none" xmlns="http://www.w3.org/2000/svg">
<path d="M17.9784 8.4C17.6832 3.9072 14.0928 0.3156 9.6 0.0204V0H9H8.4V0.0204C3.9072 0.3156 0.3156 3.9072 0.0204 8.4H0V9V9.6H0.0204C0.3156 14.0928 3.9072 17.6832 8.4 17.9784V18H9H9.6V17.9784C14.0928 17.6832 17.6832 14.0928 17.9784 9.6H18V9V8.4H17.9784ZM5.634 1.962C5.0544 2.7324 4.5732 3.6984 4.2228 4.8H2.4252C3.2076 3.5796 4.3188 2.592 5.634 1.962ZM1.7976 6H3.9072C3.7464 6.7584 3.6444 7.5636 3.612 8.4H1.2228C1.2864 7.5552 1.4856 6.7476 1.7976 6ZM1.2228 9.6H3.612C3.6444 10.4364 3.7464 11.2416 3.9072 12H1.7976C1.4856 11.2524 1.2864 10.4448 1.2228 9.6ZM2.4252 13.2H4.2216C4.572 14.3016 5.0532 15.2676 5.634 16.038C4.3188 15.408 3.2076 14.4216 2.4252 13.2ZM8.4 16.7232C7.1664 16.3932 6.1044 15.0684 5.46 13.2H8.4V16.7232ZM8.4 12H5.1228C4.9536 11.2524 4.8468 10.4448 4.812 9.6H8.4V12ZM8.4 8.4H4.812C4.8468 7.5552 4.9536 6.7476 5.1228 6H8.4V8.4ZM8.4 4.8H5.46C6.1044 2.9316 7.1664 1.6068 8.4 1.278V4.8ZM15.5748 4.8H13.7796C13.428 3.6984 12.948 2.7324 12.366 1.962C13.68 2.592 14.7924 3.5796 15.5748 4.8ZM9.6 1.278C10.8324 1.6068 11.8956 2.9316 12.54 4.8H9.6V1.278ZM9.6 6H12.876C13.0464 6.7476 13.1508 7.5552 13.188 8.4H9.6V6ZM9.6 9.6H13.188C13.1532 10.4448 13.0464 11.2524 12.876 12H9.6V9.6ZM9.6 16.7232V13.2H12.54C11.8956 15.0684 10.8324 16.3932 9.6 16.7232ZM12.366 16.038C12.9456 15.2664 13.428 14.3016 13.7796 13.2H15.5748C14.7924 14.4216 13.68 15.408 12.366 16.038ZM16.2024 12H14.0928C14.2536 11.2416 14.3556 10.4364 14.388 9.6H16.776C16.7136 10.4448 16.5144 11.2524 16.2024 12ZM14.388 8.4C14.3556 7.5636 14.2536 6.7584 14.0928 6H16.2024C16.5144 6.7476 16.7136 7.5552 16.7772 8.4H14.388Z" fill="#828282"/>
</svg>
