<svg width="12" height="12" viewBox="0 0 12 12" fill="none" xmlns="http://www.w3.org/2000/svg">
<path d="M11.0307 1.70449C10.4024 1.07613 9.57049 0.73269 8.68264 0.73269C7.79479 0.73269 6.96036 1.07867 6.332 1.70704L6.00382 2.03521L5.67056 1.70195C5.0422 1.07358 4.20522 0.725058 3.31737 0.725058C2.43207 0.725058 1.59764 1.07104 0.971817 1.69686C0.343452 2.32522 -0.00253006 3.15965 1.39302e-05 4.0475C1.39302e-05 4.93535 0.34854 5.76723 0.976905 6.3956L5.75451 11.1732C5.82066 11.2393 5.9097 11.275 5.99619 11.275C6.08269 11.275 6.17173 11.2419 6.23787 11.1757L11.0257 6.40577C11.654 5.77741 12 4.94298 12 4.05513C12.0025 3.16728 11.6591 2.33286 11.0307 1.70449ZM10.5423 5.91987L5.99619 10.4482L1.46026 5.91224C0.961641 5.41362 0.68689 4.75218 0.68689 4.0475C0.68689 3.34282 0.959097 2.68138 1.45772 2.1853C1.9538 1.68923 2.61523 1.41448 3.31737 1.41448C4.02206 1.41448 4.68604 1.68923 5.18466 2.18785L5.7596 2.76279C5.89443 2.89762 6.11067 2.89762 6.2455 2.76279L6.81536 2.19294C7.31398 1.69432 7.97796 1.41957 8.6801 1.41957C9.38224 1.41957 10.0437 1.69432 10.5423 2.19039C11.0409 2.68901 11.3131 3.35045 11.3131 4.05513C11.3157 4.75982 11.0409 5.42125 10.5423 5.91987Z" fill="white"/>
</svg>
