<svg width="18" height="18" viewBox="0 0 18 18" fill="none" xmlns="http://www.w3.org/2000/svg">
<path d="M2.76908 12.0749V4.332H1.58289C0.706074 4.332 0 5.04904 0 5.92507V16.3936C0 17.2708 0.706074 17.98 1.58289 17.98H12.0518C12.9282 17.98 13.648 17.2708 13.648 16.3936V15.2501H5.94426C4.20316 15.2505 2.76908 13.8164 2.76908 12.0749Z" fill="#828282"/>
<path d="M16.4137 0.019577H5.94434C5.06792 0.019577 4.35205 0.729567 4.35205 1.60599V12.0749C4.35205 12.9525 5.06831 13.6676 5.94434 13.6676H16.4137C17.2897 13.6676 18.0001 12.9525 18.0001 12.0749V1.60638C18.0001 0.729176 17.2897 0.019577 16.4137 0.019577ZM16.1983 11.1958C16.1109 11.3571 15.9429 11.4527 15.7597 11.4527H6.78905C6.63123 11.4527 6.48281 11.3822 6.38882 11.2561C6.29483 11.1292 6.26624 10.9678 6.31167 10.8163L7.59498 6.57162C7.67957 6.2924 7.91532 6.08602 8.20354 6.03864C8.49177 5.99164 8.78156 6.11304 8.95074 6.35075L10.7451 8.87155C10.9867 9.21107 11.4547 9.29527 11.7981 9.06109L13.4503 7.93912C13.6203 7.8236 13.829 7.7817 14.0299 7.82203C14.2316 7.86198 14.4082 7.98181 14.5206 8.15412L16.1767 10.6886C16.277 10.8425 16.2852 11.0352 16.1983 11.1958Z" fill="#828282"/>
</svg>
