<svg width="16" height="16" viewBox="0 0 16 16" fill="none" xmlns="http://www.w3.org/2000/svg">
<g clip-path="url(#clip0)">
<path d="M12.4449 8.62432L5.32473 15.7444C5.16005 15.9092 4.94021 16 4.70581 16C4.47141 16 4.25157 15.9092 4.08689 15.7444L3.56253 15.2202C3.22133 14.8786 3.22133 14.3234 3.56254 13.9823L9.54154 8.00332L3.5559 2.01768C3.39122 1.85286 3.3003 1.63316 3.3003 1.39888C3.3003 1.16435 3.39122 0.944643 3.5559 0.779701L4.08026 0.255608C4.24507 0.0907966 4.46477 1.15728e-06 4.69918 1.19826e-06C4.93358 1.23925e-06 5.15342 0.0907968 5.3181 0.255608L12.4449 7.38219C12.61 7.54752 12.7007 7.76826 12.7002 8.00293C12.7007 8.2385 12.61 8.45912 12.4449 8.62432Z" fill="#4F4F4F"/>
</g>
<defs>
<clipPath id="clip0">
<rect width="16" height="16" fill="white" transform="matrix(1 1.74846e-07 1.74846e-07 -1 0 16)"/>
</clipPath>
</defs>
</svg>
