<svg width="18" height="18" viewBox="0 0 18 18" fill="none" xmlns="http://www.w3.org/2000/svg">
<path d="M9 7.5C8.175 7.5 7.5 8.175 7.5 9C7.5 9.825 8.175 10.5 9 10.5C9.825 10.5 10.5 9.825 10.5 9C10.5 8.175 9.825 7.5 9 7.5ZM14.25 2.25H3.75C2.9175 2.25 2.25 2.925 2.25 3.75V14.25C2.25 15.075 2.9175 15.75 3.75 15.75H14.25C15.0825 15.75 15.75 15.075 15.75 14.25V3.75C15.75 2.925 15.0825 2.25 14.25 2.25ZM12.9375 9C12.9375 9.1725 12.9225 9.345 12.9 9.51L14.01 10.38C14.1075 10.4625 14.1375 10.605 14.07 10.7175L13.02 12.5325C12.9525 12.645 12.8175 12.69 12.6975 12.645L11.3925 12.12C11.1225 12.33 10.8225 12.5025 10.5075 12.6375L10.3125 14.025C10.29 14.1525 10.1775 14.25 10.05 14.25H7.95C7.8225 14.25 7.71 14.1525 7.6875 14.0325L7.4925 12.645C7.17 12.51 6.8775 12.3375 6.6075 12.1275L5.3025 12.6525C5.1825 12.6975 5.0475 12.6525 4.98 12.54L3.93 10.725C3.8625 10.6125 3.8925 10.47 3.99 10.3875L5.1 9.5175C5.0775 9.345 5.0625 9.1725 5.0625 9C5.0625 8.8275 5.0775 8.655 5.1 8.49L3.99 7.62C3.8925 7.5375 3.8625 7.395 3.93 7.2825L4.98 5.4675C5.0475 5.355 5.1825 5.31 5.3025 5.355L6.6075 5.88C6.8775 5.67 7.1775 5.4975 7.4925 5.3625L7.6875 3.975C7.71 3.8475 7.8225 3.75 7.95 3.75H10.05C10.1775 3.75 10.29 3.8475 10.3125 3.9675L10.5075 5.355C10.83 5.49 11.1225 5.6625 11.3925 5.8725L12.6975 5.3475C12.8175 5.3025 12.9525 5.3475 13.02 5.46L14.07 7.275C14.1375 7.3875 14.1075 7.53 14.01 7.6125L12.9 8.4825C12.9225 8.655 12.9375 8.8275 12.9375 9Z" fill="white"/>
</svg>
