<svg width="26" height="26" viewBox="0 0 26 26" fill="none" xmlns="http://www.w3.org/2000/svg">
<g clip-path="url(#clip0)">
<path d="M0.613472 9.56003L9.03497 8.77897L12.3802 1.01103C12.6144 0.467109 13.3856 0.467109 13.6198 1.01103L16.9651 8.77902L25.3865 9.56003C25.9762 9.61472 26.2145 10.3482 25.7696 10.739L19.4156 16.3209L21.2751 24.5717C21.4053 25.1493 20.7814 25.6026 20.2722 25.3003L13 20.9821L5.72779 25.3003C5.21861 25.6026 4.59466 25.1493 4.72487 24.5717L6.58442 16.3209L0.230379 10.739C-0.214514 10.3482 0.0237999 9.61472 0.613472 9.56003Z" fill="#FFDC64"/>
<path d="M12.3802 1.01103C12.6144 0.467109 13.3856 0.467109 13.6198 1.01103L16.9651 8.77902L25.3865 9.56003C25.9762 9.61472 26.2145 10.3482 25.7696 10.739L19.4156 16.3209L21.2751 24.5717C21.4053 25.1493 20.7814 25.6026 20.2722 25.3003L18.6491 24.3365C18.4245 15.0892 14.1279 8.57716 10.7261 4.85191L12.3802 1.01103Z" fill="#FFC850"/>
</g>
<defs>
<clipPath id="clip0">
<rect width="26" height="26" fill="white" transform="matrix(-1 0 0 1 26 0)"/>
</clipPath>
</defs>
</svg>
